<svg xmlns="http://www.w3.org/2000/svg" width="307.17" height="136.415" viewBox="0 0 307.17 136.415">
  <g id="Component_1_1" data-name="Component 1 – 1" transform="translate(1.236 1)">
    <path id="Union_1" data-name="Union 1" d="M170.855,134.415l1.494-7.127a84.684,84.684,0,0,1-12.048,4.128,98.979,98.979,0,0,1-25.244,3H81.426l23.03-109.761H67.965L45.034,134.415H14.98L37.821,24.653H0L5.271,0H156.234q14.608,0,25.658,4.031a54.837,54.837,0,0,1,14.665,7.883L199.058,0h46.6q14.612,0,25.66,4.031a52.325,52.325,0,0,1,18.54,11.2,46.051,46.051,0,0,1,11.283,17.152,61.454,61.454,0,0,1,3.789,21.98,99.8,99.8,0,0,1-2.126,20.67,82.8,82.8,0,0,1-6.427,18.981,71.065,71.065,0,0,1-10.865,16.31,65.464,65.464,0,0,1-15.489,12.746,77.928,77.928,0,0,1-20.3,8.344,98.993,98.993,0,0,1-25.244,3Zm35.23-24.559H224.3a52.173,52.173,0,0,0,20.344-3.8A43.251,43.251,0,0,0,260.087,95.28a48,48,0,0,0,9.8-16.778,65.79,65.79,0,0,0,3.421-21.793,40.567,40.567,0,0,0-2.081-13.45,25.277,25.277,0,0,0-6.379-10.078,28.561,28.561,0,0,0-10.865-6.326,48.981,48.981,0,0,0-15.534-2.2H223.932Zm-89.429,0h18.216a52.178,52.178,0,0,0,20.345-3.8A43.251,43.251,0,0,0,170.658,95.28a48,48,0,0,0,9.8-16.778,65.709,65.709,0,0,0,3.422-21.793A40.615,40.615,0,0,0,181.8,43.26a25.3,25.3,0,0,0-6.38-10.078,28.547,28.547,0,0,0-10.865-6.326,48.973,48.973,0,0,0-15.533-2.2H134.5Z" fill="none" stroke="#fff" stroke-miterlimit="10" stroke-width="2"/>
  </g>
</svg>
